<?xml version="1.0" encoding="utf-8" ?><svg xmlns="http://www.w3.org/2000/svg" xmlns:xlink="http://www.w3.org/1999/xlink" width="1024" height="1024" viewBox="0 0 1024 1024"><path fill="#D7B864" d="M193.251 392.695C202.221 392.317 211.345 392.74 220.332 392.728C230.122 392.714 245.104 391.436 254.231 393.557C257.401 394.294 260.213 396.056 262.603 398.228C269.192 404.216 296.722 456.323 297.026 465.696C297.19 470.729 295.179 475.13 291.642 478.644C289.618 480.655 287.561 481.962 284.816 482.777C276.726 485.178 258.428 483.939 249.375 483.921L188.218 483.967C182.911 483.967 162.494 484.571 158.37 483.333C128.919 474.131 156.25 439.568 163.85 422.497C170.334 407.934 176.382 394.049 193.251 392.695ZM249.19 474.976C256.931 475.001 279.581 476.8 285.81 471.97C291.168 466.369 281.526 452.561 279.159 447.085C273.416 433.799 266.944 423.411 260.325 410.586C252.702 395.814 231.516 403.295 217.273 401.522C213.351 401.034 197.422 401.23 193.441 401.686C189.572 402.188 186.417 402.731 184.001 406.139C180.402 411.216 177.307 417.104 174.503 422.651C167.825 435.862 160.593 448.896 154.633 462.439C153.95 463.992 153.849 466.19 154.113 467.851C155.078 473.329 159.859 474.707 164.659 474.839C174.459 475.109 184.219 474.994 193.993 474.994L249.19 474.976Z"/><path fill="#D7B864" d="M211.664 556.337C206.533 543.295 193.98 519.413 185.828 507.508C183.326 503.814 178.067 503.011 173.877 502.908C159.511 502.552 144.839 503.149 130.514 502.546C116.369 501.95 112.835 504.155 106.312 516.594C98.9784 530.613 91.3973 544.883 84.5772 559.116C81.4095 565.727 82.7929 572.484 90.5278 573.807C97.9227 575.072 105.774 574.669 113.245 574.672L145.396 574.694L182.86 574.664C188.784 574.659 194.843 575.033 200.748 574.633C203.9 574.419 207.568 573.782 209.939 571.522C214.388 567.28 217.218 559.701 219.987 554.218C225.643 543.02 242.037 509.035 249.098 501.321C254.14 495.812 260.237 494.201 267.419 493.875C275.216 493.522 283.139 493.962 290.95 493.958C301.723 493.952 314.087 492.678 324.605 494.923C328.353 495.723 331.658 497.209 334.451 499.869C341.811 506.879 362.047 547.316 365.692 557.508C366.658 560.208 367.347 563.055 367.327 565.937C367.292 571.003 365.318 574.616 361.837 578.15C351.553 585.576 335.056 583.252 322.591 583.222L276.837 583.195L252.589 583.258C241.263 583.351 235.502 584.607 225.118 578.64L229.164 571.404C237.232 575.817 246.2 574.696 255.167 574.699L285.683 574.744L324.691 574.711C332.536 574.725 340.706 575.182 348.513 574.501C351.771 574.217 355.274 572.914 357.335 570.248C358.645 568.552 358.898 566.784 358.606 564.693C357.657 557.905 337.473 518.923 332.994 511.921C331.499 509.584 329.762 507.347 327.458 505.754C325.229 504.214 322.678 503.437 320.008 503.111C314.569 502.445 266.425 502.496 261.7 503.539C258.848 504.169 256.935 505.275 255.027 507.49C250.993 512.174 248.263 518.654 245.396 524.116C240.354 533.673 235.366 543.258 230.433 552.872C214.623 584.343 217.273 583.564 181.677 583.244L153.717 583.206L116.792 583.207C108.859 583.25 100.987 583.673 93.0519 583.098C79.193 582.094 70.3916 571.725 75.819 558.066C80.1653 547.959 85.0066 537.201 90.5311 527.637C99.0026 512.973 101.948 497.167 120.802 494.218C137.967 492.655 159.317 494.893 176.84 494.147C182.17 493.92 190.735 498.445 193.592 503.063C201.334 515.578 211.537 532.557 216.637 546.326C215.558 549.002 213.048 553.613 211.664 556.337Z"/><path fill="#D7B864" d="M644.905 418.42C649.906 418.561 655.025 418.452 660.036 418.407L659.896 519.433C654.937 519.337 649.976 519.337 645.017 519.432L644.858 509.392C632.895 521.636 619.892 524.043 604.236 517.056C589.755 509.064 586.398 498.924 585.989 482.98C585.222 453.046 625.952 437.543 645.034 459.701C644.505 446.799 644.89 431.501 644.905 418.42ZM627.736 506.813C639.679 504.421 647.399 492.772 644.947 480.841C642.495 468.91 630.807 461.25 618.889 463.762C607.056 466.256 599.461 477.843 601.896 489.689C604.33 501.535 615.878 509.187 627.736 506.813Z"/><path fill="#D7B864" d="M505.714 449.093C525.766 446.398 544.185 460.523 546.782 480.588C549.379 500.652 535.163 519.002 515.087 521.501C495.148 523.983 476.951 509.887 474.372 489.96C471.793 470.034 485.801 451.769 505.714 449.093ZM512.245 506.95C524.25 506.057 533.277 495.632 532.443 483.624C531.61 471.615 521.23 462.537 509.217 463.31C497.12 464.09 487.964 474.559 488.803 486.652C489.642 498.745 500.157 507.849 512.245 506.95Z"/><path fill="#D7B864" d="M417.318 419.228C433.496 419.112 445.951 425.379 457.355 436.381C452.673 439.498 449.421 442.249 445.498 446.224C443.67 444.609 441.82 443.026 439.905 441.497C422.881 427.915 395.607 434.456 385.799 453.689C380.549 463.985 380.443 477.351 386.173 487.659C390.882 495.986 398.688 502.117 407.894 504.717C427.818 510.263 443.607 500.84 448.875 481.029C438.708 481.085 428.541 481.069 418.374 480.982C418.352 476.965 418.284 473.414 418.042 469.409C418.178 468.02 417.863 468.584 418.834 467.602C432.222 466.888 451.551 467.556 465.358 467.595C465.714 482.159 463.617 493.382 453.617 504.687C445.202 514.301 433.274 520.127 420.518 520.852C406.434 521.698 392.611 516.782 382.225 507.232C372.227 498.283 366.283 485.663 365.752 472.256C365.229 459.844 369.677 446.213 378.186 437.061C388.372 426.194 402.434 419.785 417.318 419.228Z"/><path fill="#D7B864" d="M854.367 418.585C859.501 418.621 864.636 418.601 869.769 418.523C868.985 438.374 869.751 460.197 869.516 480.32C876.663 472.032 889.47 459.815 897.742 451.475C903.917 450.709 910.477 451.906 917.105 450.937C907.247 461.251 895.967 472.11 885.852 482.391C893.213 490.596 900.737 499.212 908.32 507.171C911.926 511.296 915.598 515.763 919.535 519.532C913.233 519.209 906.912 519.54 900.524 519.188C895.136 513.55 889.317 506.309 884.224 500.275C879.509 494.688 873.783 488.193 869.518 482.454C869.798 494.51 869.606 507.344 869.621 519.46L854.479 519.492L854.367 418.585Z"/><path fill="#D7B864" d="M810.294 449.684C817.296 449.209 825.069 451.425 830.16 456.365C840.697 466.588 839.15 482.066 839.118 495.486C839.075 503.477 839.1 511.469 839.194 519.459C834.211 519.4 829.043 519.471 824.047 519.478C823.982 509.026 825.711 480.217 821.834 471.853C820.208 468.344 817.408 465.203 813.666 463.943C808.664 462.259 803.563 463.838 799.093 466.168C798.469 466.726 797.86 467.301 797.267 467.891C788.344 476.9 791.038 506.318 791.093 519.35L775.848 519.469L775.718 478.574C775.666 469.731 775.369 459.85 775.873 451.088C780.74 451.115 785.608 451.081 790.475 450.986L790.426 460.022C796.96 452.912 800.679 450.873 810.294 449.684Z"/><path fill="#D7B864" d="M689.704 420.761L694.945 420.781L694.989 473.984C694.991 483.913 695.239 495.127 694.817 504.972L735.022 504.927C734.93 509.669 735.04 514.552 735.089 519.305C731.501 519.414 727.497 519.306 723.876 519.288C711.692 518.883 690.357 518.712 678.566 519.407L678.589 455.451C678.579 444.824 678.149 431.125 678.749 420.786L689.704 420.761Z"/><path fill="#D7B864" d="M569.189 419.759L573.797 419.787L573.899 519.441L563.974 519.419C562.347 519.428 560.219 519.667 559.04 518.913C558.353 510.754 558.883 496.592 558.832 487.925L558.558 419.931L569.189 419.759Z"/><path fill="#D7B864" d="M489.206 555.065L497.112 555.067C497.657 569.867 497.181 587.099 497.193 602.11L488.952 601.977L488.833 581.968C488.727 578.393 488.85 574.408 488.886 570.799C483.865 578.119 478.301 587.688 473.443 595.401C468.237 587.254 463.118 579.051 458.089 570.793C457.769 580.706 458.001 591.99 457.995 602.008L449.883 602.131C449.552 586.741 449.817 570.478 449.871 555.051C452.544 555.061 455.228 555.192 457.9 555.297C462.576 562.062 469.598 574.11 473.648 581.267C476.753 574.501 484.96 561.795 489.206 555.065Z"/><path fill="#D7B864" d="M744.901 451.058C749.808 451.367 755.174 451.325 760.094 451.17L760.022 519.329C754.954 519.352 749.885 519.408 744.818 519.499C744.55 497.497 744.339 473.039 744.901 451.058Z"/><path fill="#D7B864" d="M681.246 555.181L688.963 555.158C691.208 559.628 693.789 566.585 695.723 571.352C699.844 581.452 703.892 591.581 707.867 601.739L699.341 602.009C697.765 598.618 696.326 594.577 694.974 591.04L688.75 591.022L674.825 590.984C673.692 595.029 672.53 598.113 671.028 602.056L662.327 602.049L681.246 555.181ZM677.804 583.913L687.125 583.765L692.527 584.006C691.155 581.222 685.695 567.274 684.658 566.315C682.676 571.853 680.194 578.527 677.804 583.913Z"/><path fill="#D7B864" d="M535.95 555.104C544.737 555.212 556.537 555.523 565.143 555.044L565.128 562.631C558.182 562.679 550.875 562.617 543.978 563.059L544.027 574.548L562.306 574.468C562.353 576.874 562.179 579.679 562.088 582.114C558.611 582.223 546.598 581.612 544.328 582.744L544.382 584.037C544.421 587.694 544.539 591.2 544.154 594.841C550.158 594.42 559.676 594.72 565.942 594.725C565.993 597.585 565.919 599.318 565.708 602.153C555.743 602.074 545.776 602.088 535.811 602.195C535.573 588.804 535.227 568.205 535.95 555.104Z"/><path fill="#D7B864" d="M816.738 554.116C824.743 553.664 828.442 555.079 834.965 559.252C833.492 562.086 832.114 563.818 830.206 566.371C828.038 564.603 825.039 562.149 822.166 561.78C817.816 561.222 812.254 562.076 811.886 567.44C814.589 573.61 826.104 573.775 831.208 578.374C836.468 582.61 837.558 588.847 834.799 595.018C831.864 601.581 824.726 602.724 818.38 603.101C811.403 602.08 807.123 600.202 802.017 595.409C803.939 592.791 804.998 591.698 807.25 589.393C811.568 593.839 821.281 598.896 826.523 592.593C830.838 587.404 823.597 583.428 819.243 582.532C816.687 582.006 812.782 580.375 810.388 579.218C802.839 575.46 801.935 566.711 805.974 559.988C808.088 556.47 812.884 554.918 816.738 554.116Z"/><path fill="#D7B864" d="M600.494 555.242C612.15 555.17 623.806 555.159 635.461 555.207L635.473 562.992C631.074 562.856 626.464 562.899 622.047 562.872L622.028 589.25L622.098 602.178L614.047 602.076L614.11 562.805C609.659 562.95 604.997 562.947 600.525 563.014L600.494 555.242Z"/><path fill="#D7B864" d="M740.78 554.956L749.044 554.97C748.946 568.24 748.984 581.511 749.158 594.781C756.202 594.456 763.805 594.562 770.901 594.544L770.896 601.91C761.572 602.314 750.315 601.966 740.744 602.109C740.929 586.564 740.272 570.484 740.78 554.956Z"/><path fill="#D7B864" d="M750.635 420.001C756.101 419.231 761.173 422.992 762.026 428.447C762.878 433.901 759.194 439.03 753.753 439.964C750.16 440.582 746.512 439.215 744.209 436.388C741.906 433.561 741.305 429.712 742.636 426.318C743.967 422.923 747.024 420.509 750.635 420.001Z"/></svg>